<svg width="102" height="94" viewBox="0 0 102 94" fill="none" xmlns="http://www.w3.org/2000/svg">
<path d="M31.1856 3.91135L21.2977 22.3914C20.6601 23.5845 21.0794 25.0758 22.2422 25.7485L37.7257 34.6734C38.9058 35.3546 40.4057 34.9357 41.0757 33.7384L60 0H37.6652C34.9615 0 32.4738 1.49981 31.1856 3.91135Z" fill="#29A361"/>
<path d="M60 0L41.3029 33.7389C40.6388 34.934 39.159 35.355 37.9931 34.6739L34 32.3449C34.9737 32.5057 35.988 32.0467 36.5026 31.1159L53.7498 0H60Z" fill="#248F55"/>
<path d="M79.446 18.163L72.9709 4.18319C71.785 1.61916 69.3641 0 66.7175 0H48L62.372 26.4478C62.3248 26.4693 62.2776 26.4929 62.2304 26.5165C61.3256 26.9567 61.3625 28.3632 62.2878 28.7498L74.6984 33.9187C75.2729 34.1593 75.9192 33.8478 76.1387 33.2229L80.9232 19.7113C81.2761 18.7106 80.3487 17.7464 79.446 18.163Z" fill="#34CB79"/>
<path d="M80.9224 19.7101L76.0859 33.2209C75.864 33.8479 75.2107 34.1593 74.63 33.9188L70.8347 32.3534L75.358 19.7101C75.6152 18.9929 75.2045 18.295 74.6155 18.1125C74.0535 17.9364 73.5743 17.5434 73.313 16.983L67.3214 4.18503C66.1206 1.62116 63.6754 0 61 0H66.5624C69.2378 0 71.6829 1.62116 72.8837 4.18503L79.4291 18.164C80.3417 17.7474 81.2791 18.7116 80.9224 19.7101Z" fill="#2FB86E"/>
<path d="M66.1066 72.77C65.9254 72.0359 64.9659 71.7207 64.3817 72.3002L54.3006 82.2616C53.8998 82.6581 53.8998 83.3027 54.3006 83.6992L64.42 93.7013C65.0021 94.2747 65.951 93.9677 66.1429 93.2458H81.0234C83.7633 93.2458 86.2708 91.7248 87.5096 89.3092L96 72.77H66.1066Z" fill="#29A361"/>
<path d="M78.3833 72L83.2882 79.7534C84.3957 81.5055 84.5192 83.745 83.6089 85.6195L81.5911 89.7703C80.334 92.3658 77.7851 94 75 94H80.7761C83.559 94 86.1101 92.3658 87.3694 89.7703L96 72H78.3833Z" fill="#248F55"/>
<path d="M46 91.4332V72.5689C46 71.1505 44.924 70 43.5963 70H4L14.1898 89.9822C15.4519 92.4596 17.883 94 20.5235 94H43.5963C44.924 94 46 92.8517 46 91.4332Z" fill="#29A361"/>
<path d="M21 70L12.0987 86L4 70H21Z" fill="#248F55"/>
<path d="M46 72.567V91.433C46 92.8516 45.0117 94 43.7922 94H38C39.2194 94 40.2078 92.8516 40.2078 91.433V72.567C40.2078 71.1484 39.2194 70 38 70H43.7922C45.0117 70 46 71.1484 46 72.567Z" fill="#248F55"/>
<path d="M26.9887 54.5865L25.2133 41.0602C25.1247 40.3921 24.5188 39.9221 23.8581 40.0107L10.4448 41.8149C9.43364 41.951 9.05786 43.1944 9.75027 43.8872L1.28523 56.2382C-0.268466 58.5022 -0.42473 61.459 0.877753 63.8797L10.0902 81L25.0465 55.7082C25.0529 55.7123 25.0571 55.7165 25.0634 55.7207C25.9163 56.3764 27.1301 55.6608 26.9887 54.5865Z" fill="#34CB79"/>
<path d="M25.0602 55.7215C25.058 55.7174 25.0517 55.7131 25.0475 55.709L10.0797 81L7 75.2841L19.1837 54.6945L19.5217 54.1233C19.7055 53.8099 20.0666 53.6758 20.4194 53.7439C20.4215 53.7459 20.4237 53.746 20.4258 53.746C21.1756 53.8821 21.9466 53.249 21.8325 52.3788L20.2716 40.4911L23.8561 40.0107C24.5152 39.9221 25.1235 40.3922 25.2122 41.0582L26.9887 54.5873C27.1302 55.6636 25.9156 56.3772 25.0602 55.7215Z" fill="#2FB86E"/>
<path d="M100.737 55.3678L89.2722 38.0698C88.5699 37.0072 87.2011 36.688 86.1289 37.3307L71.1902 46.3082C70.0031 47.0222 69.6395 48.6267 70.394 49.8174L91.4561 83L101.229 62.9426C102.411 60.5149 102.223 57.6085 100.737 55.3678Z" fill="#34CB79"/>
<path d="M101.234 62.9425L91.5226 83L88.2668 77.8339L95.4738 62.9425C96.649 60.5149 96.4622 57.6084 94.9859 55.3677L84 38.6829L86.2342 37.3326C87.2993 36.6858 88.6572 37.0092 89.357 38.0697L100.746 55.3677C102.222 57.6084 102.409 60.517 101.234 62.9425Z" fill="#2FB86E"/>
</svg>
